<svg id="Layer_1" data-name="Layer 1" xmlns="http://www.w3.org/2000/svg" viewBox="0 0 94.54 884.52"><defs><style>.cls-1{fill:#f79520;}.cls-2,.cls-3{fill:none;stroke:#f79520;stroke-miterlimit:10;stroke-width:8px;}.cls-3{stroke-dasharray:19.6 19.6;}</style></defs><title>line</title><path class="cls-1" d="M47.6,10.13a35.5,35.5,0,1,1-35.5,35.5,35.55,35.55,0,0,1,35.5-35.5m0-8a43.5,43.5,0,1,0,43.5,43.5A43.5,43.5,0,0,0,47.6,2.13Z"/><path class="cls-1" d="M47.6,803.13a35.5,35.5,0,1,1-35.5,35.5,35.55,35.55,0,0,1,35.5-35.5m0-8a43.5,43.5,0,1,0,43.5,43.5,43.5,43.5,0,0,0-43.5-43.5Z"/><line class="cls-2" x1="47.1" y1="89.13" x2="47.1" y2="99.13"/><line class="cls-3" x1="47.1" y1="118.73" x2="47.1" y2="775.33"/><line class="cls-2" x1="47.1" y1="785.13" x2="47.1" y2="795.13"/></svg>