<svg id="Layer_1" data-name="Layer 1" xmlns="http://www.w3.org/2000/svg" xmlns:xlink="http://www.w3.org/1999/xlink" viewBox="0 0 2976.02 716.04"><defs><style>.cls-1{fill:url(#New_Gradient_Swatch);}.cls-2{fill:url(#New_Gradient_Swatch-2);}.cls-3{fill:url(#New_Gradient_Swatch-3);}.cls-4{fill:#282828;}.cls-5{fill:#0069aa;}</style><linearGradient id="New_Gradient_Swatch" x1="2025" y1="268.03" x2="1755.55" y2="734.72" gradientUnits="userSpaceOnUse"><stop offset="0" stop-color="#0069aa"/><stop offset="1" stop-color="#00497b"/></linearGradient><linearGradient id="New_Gradient_Swatch-2" x1="1828.74" y1="0" x2="1828.74" y2="358.08" xlink:href="#New_Gradient_Swatch"/><linearGradient id="New_Gradient_Swatch-3" x1="1602.98" y1="716.04" x2="1602.98" y2="95.34" xlink:href="#New_Gradient_Swatch"/></defs><title>logo</title><path class="cls-1" d="M2096.73,309.45l-456.62,265,2,94.76L2181,358.08Z"/><polygon class="cls-2" points="2012.93 358.08 2096.73 309.45 1560.75 0 1560.98 97.1 2012.93 358.08"/><polygon class="cls-3" points="1644.99 145.66 1644.99 667.53 1560.97 716.04 1560.97 95.34 1644.99 145.66"/><path class="cls-4" d="M141.69,438l-.45-72.55-34.57,58.22H83L48.44,368v70H-.46V278.81H43.66l51.86,84.84L146,278.81h44.13L190.59,438Z"/><path class="cls-4" d="M218.22,296.21a24.91,24.91,0,0,1,0-37.52q8.53-7.4,22.41-7.4,14.1,0,22.51,7a22.67,22.67,0,0,1,8.42,18.2A25.07,25.07,0,0,1,263.14,296q-8.42,7.62-22.51,7.62Q226.76,303.61,218.22,296.21Zm-3.29,17.4h51.4V438h-51.4Z"/><path class="cls-4" d="M318.07,432.11a63.23,63.23,0,0,1-26.16-23,63.74,63.74,0,0,1,0-66.76,63.53,63.53,0,0,1,26.16-22.85q16.71-8.19,37.87-8.19,22.74,0,38.89,9.78a50.76,50.76,0,0,1,22.29,27.06l-39.8,19.56q-7.29-16.37-21.61-16.37a19.94,19.94,0,0,0-15.13,6.37q-6,6.36-6,18,0,11.83,6,18.2a19.94,19.94,0,0,0,15.13,6.37q14.32,0,21.61-16.38l39.8,19.56a50.74,50.74,0,0,1-22.29,27.07q-16.15,9.78-38.89,9.78Q334.79,440.3,318.07,432.11Z"/><path class="cls-4" d="M488.53,399.81l-8.18,8.87V438H428.94V269.26h51.41v80.52l35.7-36.17h60.73l-51.4,53.91,55.5,70.5h-62.1Z"/><path class="cls-4" d="M667.42,435.64A61.92,61.92,0,0,1,642.51,418l28.89-34.12a52.49,52.49,0,0,0,12.5,11.83,23.59,23.59,0,0,0,12.74,3.87q8.42,0,12.85-5t4.44-14.78V319.3H659.8V278.81H766.92v97.8q0,32.53-16.72,48.79t-49,16.26A90.66,90.66,0,0,1,667.42,435.64Z"/><path class="cls-4" d="M895.65,326q17.28,14.67,17.29,45.15V438H865.17V421.65q-8.86,18.64-35.25,18.65-14.79,0-25.13-5.12a36,36,0,0,1-21-33.55q0-18.42,14.1-28t42.76-9.55h20.7q-2.5-14.57-23.43-14.56a58.8,58.8,0,0,0-17.06,2.61A48.1,48.1,0,0,0,806,359.33l-16.38-33.89a90.3,90.3,0,0,1,25.82-10.35,124.81,124.81,0,0,1,30.13-3.75Q878.37,311.34,895.65,326Zm-40.48,80.4a17.19,17.19,0,0,0,6.37-8.87V388.9H848.8q-15.69,0-15.7,10.46a9,9,0,0,0,3.3,7.16c2.2,1.9,5.19,2.85,9,2.85A16.94,16.94,0,0,0,855.17,406.41Z"/><path class="cls-4" d="M952.51,436.89q-15.46-3.42-25-8.87l14.1-33.89a73.94,73.94,0,0,0,20.47,8.19,94.63,94.63,0,0,0,23,2.95q8.88,0,12.4-1.48t3.53-4.43q0-3-4.44-4.09A118.88,118.88,0,0,0,982.08,393a189.09,189.09,0,0,1-25.93-4.66,40.64,40.64,0,0,1-18.76-11q-8.08-8.19-8.08-23.43a34.71,34.71,0,0,1,7.28-21.61q7.27-9.54,21.72-15.24T993,311.34a145.62,145.62,0,0,1,27.63,2.61,84.47,84.47,0,0,1,23.08,7.62l-14.1,33.89a72.76,72.76,0,0,0-35.93-9.09q-16.84,0-16.83,5.91c0,2,1.51,3.37,4.55,4.21a104.62,104.62,0,0,0,14.32,2.38,175.33,175.33,0,0,1,25.82,4.78,41.57,41.57,0,0,1,18.65,11.15q8.07,8.18,8.07,23.42a34.07,34.07,0,0,1-7.27,21.15q-7.29,9.56-21.84,15.24T983.9,440.3A145.53,145.53,0,0,1,952.51,436.89Z"/><path class="cls-4" d="M1123.32,399.81l-8.19,8.87V438h-51.4V269.26h51.4v80.52l35.71-36.17h60.72l-51.4,53.91,55.5,70.5h-62.09Z"/><path class="cls-4" d="M1351.9,387.76h-86.43a20.91,20.91,0,0,0,9.1,10.8q6.36,3.75,15.92,3.76a40.32,40.32,0,0,0,13.76-2.05,48.44,48.44,0,0,0,12.17-7l26.83,27.06q-18.2,20-54.35,20-22.53,0-39.58-8.3t-26.38-23.09a64.32,64.32,0,0,1-.12-66.53,63,63,0,0,1,25.25-22.85q16-8.19,36-8.19a78.44,78.44,0,0,1,34.46,7.5,59.2,59.2,0,0,1,24.79,22.07q9.21,14.55,9.21,34.79C1352.58,376.47,1352.35,380.48,1351.9,387.76Zm-80.52-37.07q-5.24,4.32-6.82,12.28h40a21,21,0,0,0-6.82-12.17q-5.24-4.44-13.2-4.43T1271.38,350.69Z"/><path class="cls-4" d="M1457.88,311.34v45.49a77.38,77.38,0,0,0-11.37-.91q-26.38,0-26.38,26.84V438h-51.4V313.61h48.9V327Q1431.28,311.34,1457.88,311.34Z"/><path class="cls-5" d="M2431.37,438l-.23-95.52-46.85,78.69h-16.6l-46.63-76.64V438h-34.57V278.81H2317l59.59,98.94,58.68-98.94h30.25l.45,159.21Z"/><path class="cls-5" d="M2620.37,386.85H2527.8a28.84,28.84,0,0,0,11.83,18q9.33,6.6,23.2,6.59a46.82,46.82,0,0,0,16.94-2.84,41.07,41.07,0,0,0,13.77-9l18.87,20.47q-17.28,19.79-50.49,19.78-20.7,0-36.62-8.07a59.18,59.18,0,0,1-24.56-22.4q-8.65-14.34-8.64-32.53a62.61,62.61,0,0,1,8.52-32.41,59.84,59.84,0,0,1,23.43-22.52,72.55,72.55,0,0,1,65.84-.34,56.41,56.41,0,0,1,22.86,22.18q8.31,14.44,8.3,33.55C2621.05,377.75,2620.83,380.94,2620.37,386.85Zm-83-39.35q-8.19,6.83-10,18.65h60.27q-1.82-11.59-10-18.53t-20-6.94Q2545.54,340.68,2537.36,347.5Z"/><path class="cls-5" d="M2769.35,269.26V438h-33.89v-14.1q-13.2,15.93-38.21,15.92a63.51,63.51,0,0,1-31.28-7.73A55.32,55.32,0,0,1,2644,410.05q-8-14.32-8-33.21t8-33.2A55.34,55.34,0,0,1,2666,321.57a63.62,63.62,0,0,1,31.28-7.73q23.41,0,36.62,14.78V269.26Zm-43.67,132.26q8.87-9.21,8.87-24.68t-8.87-24.68q-8.88-9.21-22.29-9.21-13.65,0-22.52,9.21T2672,376.84q0,15.48,8.87,24.68t22.52,9.21Q2716.8,410.73,2725.68,401.52Z"/><path class="cls-5" d="M2803.91,292.92a19.27,19.27,0,0,1,0-28.21q6.15-5.68,15.92-5.68t15.93,5.46a17.49,17.49,0,0,1,6.14,13.64,19.31,19.31,0,0,1-6.14,14.67q-6.15,5.81-15.93,5.8T2803.91,292.92Zm-1.82,22.74h35.49V438h-35.49Z"/><path class="cls-5" d="M2963.58,327.37q15.23,13.54,15.24,40.83V438h-33.21V422.79q-10,17.06-37.3,17-14.1,0-24.45-4.77a36.5,36.5,0,0,1-15.81-13.19,34.33,34.33,0,0,1-5.46-19.11q0-17.06,12.85-26.84t39.69-9.78h28.2q0-11.59-7-17.85T2915.13,342a62,62,0,0,0-19.22,3.07,50.79,50.79,0,0,0-16,8.31l-12.74-24.8a77.09,77.09,0,0,1,24-10.91,107.34,107.34,0,0,1,28.77-3.87Q2948.34,313.84,2963.58,327.37Zm-30.25,84.38a23,23,0,0,0,10-12.39V386.85H2919q-21.84,0-21.84,14.33a12.74,12.74,0,0,0,5.35,10.8q5.34,4,14.67,4A30.87,30.87,0,0,0,2933.33,411.75Z"/></svg>